<?xml version="1.0" encoding="UTF-8" standalone="no"?> <svg xmlns:xlink="http://www.w3.org/1999/xlink" xmlns="http://www.w3.org/2000/svg" contentScriptType="application/ecmascript" contentStyleType="text/css" height="207px" preserveAspectRatio="none" style="width:435px;height:207px;" viewBox="0 0 435 207" width="435px" zoomAndPan="magnify"> <defs> <filter height="300%" id="f1jmblw5slt8i7" width="300%" x="-1" y="-1"> <feGaussianBlur result="blurOut" stdDeviation="2.0"></feGaussianBlur> <feColorMatrix in="blurOut" result="blurOut2" type="matrix" values="0 0 0 0 0 0 0 0 0 0 0 0 0 0 0 0 0 0 .4 0"></feColorMatrix> <feOffset dx="4.0" dy="4.0" in="blurOut2" result="blurOut3"></feOffset> <feBlend in="SourceGraphic" in2="blurOut3" mode="normal"></feBlend> </filter> </defs> <g> <polygon fill="#FFFFFF" filter="url(#f1jmblw5slt8i7)" points="16,6,53,6,60,28.2969,418,28.2969,418,200,16,200,16,6" style="stroke:#000000;stroke-width:1.5;"></polygon> <line style="stroke:#000000;stroke-width:1.5;" x1="16" x2="60" y1="28.2969" y2="28.2969"></line> <text fill="#000000" font-family="sans-serif" font-size="14" font-weight="bold" lengthAdjust="spacing" textLength="31" x="20" y="20.9951">java</text> <polygon fill="#FFFFFF" filter="url(#f1jmblw5slt8i7)" points="314,33,345,33,352,55.2969,410,55.2969,410,100,314,100,314,33" style="stroke:#000000;stroke-width:1.5;"></polygon> <line style="stroke:#000000;stroke-width:1.5;" x1="314" x2="352" y1="55.2969" y2="55.2969"></line> <text fill="#000000" font-family="sans-serif" font-size="14" font-weight="bold" lengthAdjust="spacing" textLength="25" x="318" y="47.9951">rmi</text> <polygon fill="#FFFFFF" filter="url(#f1jmblw5slt8i7)" points="177,33,197,33,204,55.2969,295,55.2969,295,100,177,100,177,33" style="stroke:#000000;stroke-width:1.5;"></polygon> <line style="stroke:#000000;stroke-width:1.5;" x1="177" x2="204" y1="55.2969" y2="55.2969"></line> <text fill="#000000" font-family="sans-serif" font-size="14" font-weight="bold" lengthAdjust="spacing" textLength="14" x="181" y="47.9951">io</text> <polygon fill="#FFFFFF" filter="url(#f1jmblw5slt8i7)" points="187,125,226,125,233,147.2969,297,147.2969,297,192,187,192,187,125" style="stroke:#000000;stroke-width:1.5;"></polygon> <line style="stroke:#000000;stroke-width:1.5;" x1="187" x2="233" y1="147.2969" y2="147.2969"></line> <text fill="#000000" font-family="sans-serif" font-size="14" font-weight="bold" lengthAdjust="spacing" textLength="33" x="191" y="139.9951">lang</text> <polygon fill="#FFFFFF" filter="url(#f1jmblw5slt8i7)" points="24,33,54,33,61,55.2969,168,55.2969,168,192,24,192,24,33" style="stroke:#000000;stroke-width:1.5;"></polygon> <line style="stroke:#000000;stroke-width:1.5;" x1="24" x2="61" y1="55.2969" y2="55.2969"></line> <text fill="#000000" font-family="sans-serif" font-size="14" font-weight="bold" lengthAdjust="spacing" textLength="24" x="28" y="47.9951">util</text> <rect fill="#FEFECE" filter="url(#f1jmblw5slt8i7)" height="32" id="Remote" style="stroke:#A80036;stroke-width:1.5;" width="80" x="322" y="60"></rect> <ellipse cx="337" cy="76" fill="#B4A7E5" rx="11" ry="11" style="stroke:#A80036;stroke-width:1.0;"></ellipse> <path d="M332.9219,71.7656 L332.9219,69.6094 L340.3125,69.6094 L340.3125,71.7656 L337.8438,71.7656 L337.8438,79.8438 L340.3125,79.8438 L340.3125,82 L332.9219,82 L332.9219,79.8438 L335.3906,79.8438 L335.3906,71.7656 L332.9219,71.7656 Z " fill="#000000"></path> <text fill="#000000" font-family="sans-serif" font-size="12" font-style="italic" lengthAdjust="spacing" textLength="48" x="351" y="80.1543">Remote</text> <rect fill="#FEFECE" filter="url(#f1jmblw5slt8i7)" height="32" id="Serializable" style="stroke:#A80036;stroke-width:1.5;" width="102" x="185" y="60"></rect> <ellipse cx="200" cy="76" fill="#B4A7E5" rx="11" ry="11" style="stroke:#A80036;stroke-width:1.0;"></ellipse> <path d="M195.9219,71.7656 L195.9219,69.6094 L203.3125,69.6094 L203.3125,71.7656 L200.8438,71.7656 L200.8438,79.8438 L203.3125,79.8438 L203.3125,82 L195.9219,82 L195.9219,79.8438 L198.3906,79.8438 L198.3906,71.7656 L195.9219,71.7656 Z " fill="#000000"></path> <text fill="#000000" font-family="sans-serif" font-size="12" font-style="italic" lengthAdjust="spacing" textLength="70" x="214" y="80.1543">Serializable</text> <rect fill="#FEFECE" filter="url(#f1jmblw5slt8i7)" height="32" id="Cloneable" style="stroke:#A80036;stroke-width:1.5;" width="94" x="195" y="152"></rect> <ellipse cx="210" cy="168" fill="#B4A7E5" rx="11" ry="11" style="stroke:#A80036;stroke-width:1.0;"></ellipse> <path d="M205.9219,163.7656 L205.9219,161.6094 L213.3125,161.6094 L213.3125,163.7656 L210.8438,163.7656 L210.8438,171.8438 L213.3125,171.8438 L213.3125,174 L205.9219,174 L205.9219,171.8438 L208.3906,171.8438 L208.3906,163.7656 L205.9219,163.7656 Z " fill="#000000"></path> <text fill="#000000" font-family="sans-serif" font-size="12" font-style="italic" lengthAdjust="spacing" textLength="62" x="224" y="172.1543">Cloneable</text> <rect fill="#FEFECE" filter="url(#f1jmblw5slt8i7)" height="32" id="RandomAccess" style="stroke:#A80036;stroke-width:1.5;" width="127" x="32.5" y="152"></rect> <ellipse cx="47.5" cy="168" fill="#B4A7E5" rx="11" ry="11" style="stroke:#A80036;stroke-width:1.0;"></ellipse> <path d="M43.4219,163.7656 L43.4219,161.6094 L50.8125,161.6094 L50.8125,163.7656 L48.3438,163.7656 L48.3438,171.8438 L50.8125,171.8438 L50.8125,174 L43.4219,174 L43.4219,171.8438 L45.8906,171.8438 L45.8906,163.7656 L43.4219,163.7656 Z " fill="#000000"></path> <text fill="#000000" font-family="sans-serif" font-size="12" font-style="italic" lengthAdjust="spacing" textLength="95" x="61.5" y="172.1543">RandomAccess</text> <rect fill="#FEFECE" filter="url(#f1jmblw5slt8i7)" height="32" id="EventListener" style="stroke:#A80036;stroke-width:1.5;" width="117" x="32.5" y="60"></rect> <ellipse cx="47.5" cy="76" fill="#B4A7E5" rx="11" ry="11" style="stroke:#A80036;stroke-width:1.0;"></ellipse> <path d="M43.4219,71.7656 L43.4219,69.6094 L50.8125,69.6094 L50.8125,71.7656 L48.3438,71.7656 L48.3438,79.8438 L50.8125,79.8438 L50.8125,82 L43.4219,82 L43.4219,79.8438 L45.8906,79.8438 L45.8906,71.7656 L43.4219,71.7656 Z " fill="#000000"></path> <text fill="#000000" font-family="sans-serif" font-size="12" font-style="italic" lengthAdjust="spacing" textLength="85" x="61.5" y="80.1543">EventListener</text> </g> </svg> 